<?xml version="1.0" standalone="no"?><!DOCTYPE svg PUBLIC "-//W3C//DTD SVG 1.1//EN" "http://www.w3.org/Graphics/SVG/1.1/DTD/svg11.dtd"><svg t="1662637042188" class="icon" viewBox="0 0 1024 1024" version="1.1" xmlns="http://www.w3.org/2000/svg" p-id="924" xmlns:xlink="http://www.w3.org/1999/xlink" width="200" height="200"><path d="M512 889.93792c26.0096 0 43.6224-18.0224 43.6224-44.40064V348.69248l-3.23584-85.97504 105.63584 117.59616 90.76736 89.62048c8.02816 7.5776 18.8416 12.77952 31.21152 12.77952 24.00256 0 41.61536-18.432 41.61536-42.8032 0-11.59168-4.42368-21.99552-13.59872-31.58016L544.3584 144.30208A46.16192 46.16192 0 0 0 512 130.33472c-12.00128 0-23.59296 5.20192-32.39936 13.96736L215.98208 408.3712c-9.17504 9.58464-13.59872 19.98848-13.59872 31.58016 0 24.41216 18.0224 42.8032 42.02496 42.8032 12.00128 0 23.18336-5.20192 30.80192-12.77952l90.80832-89.62048 105.59488-117.9648-3.23584 86.38464v496.80384c0 26.37824 18.0224 44.40064 43.6224 44.40064z" p-id="925" fill="#2bdae4"></path></svg>