<?xml version="1.0" standalone="no"?><!DOCTYPE svg PUBLIC "-//W3C//DTD SVG 1.1//EN" "http://www.w3.org/Graphics/SVG/1.1/DTD/svg11.dtd"><svg t="1655336058818" class="icon" viewBox="0 0 1024 1024" version="1.1" xmlns="http://www.w3.org/2000/svg" p-id="3891" xmlns:xlink="http://www.w3.org/1999/xlink" width="200" height="200"><defs><style type="text/css"></style></defs><path d="M853.247037 772.918909a8.99492 8.99492 0 0 0-6.767263-3.058514h-49.670743V411.67714c0-33.21016-27.020884-60.231044-60.231044-60.231044h-85.27112V259.479962c20.596802-20.048918 29.206397-40.320602 25.311007-60.297272-7.70047-39.652305-62.26604-60.983631-64.590028-61.874694a9.037065 9.037065 0 0 0-12.089558 10.187018c0.048166 0.240828 4.641957 24.281468-0.090311 59.249671-4.14826 30.69953 17.050611 47.756162 33.390781 54.57159v90.1238H534.908749V259.479962c20.602822-20.048918 29.200376-40.320602 25.311006-60.297272-7.706491-39.652305-62.27206-60.983631-64.590028-61.874694a9.037065 9.037065 0 0 0-12.089558 10.187018c0.048166 0.240828 4.635936 24.281468-0.096331 59.249671-4.14826 30.69953 17.050611 47.756162 33.396802 54.57159v90.1238H421.514958V259.479962c20.602822-20.048918 29.200376-40.320602 25.317027-60.297272-7.712512-39.652305-62.278081-60.983631-64.596049-61.874694a9.043086 9.043086 0 0 0-12.089558 10.187018c0.048166 0.240828 4.635936 24.281468-0.096331 59.249671-4.14826 30.69953 17.062653 47.756162 33.396802 54.57159v90.1238H298.620508c-33.216181 0-60.231044 27.020884-60.231044 60.231044V769.854374h-49.670743c-2.59492 0-5.057385 1.107808-6.773284 3.058514a8.976858 8.976858 0 0 0-2.185512 7.09238c2.9381 23.565005 20.873754 68.142239 67.660583 68.142239h59.454374v30.103481a9.031044 9.031044 0 0 0 9.031045 9.031044h403.386641a9.031044 9.031044 0 0 0 9.031044-9.031044v-30.103481h59.454375c46.78683 0 64.716463-44.577234 67.660583-68.142239a9.043086 9.043086 0 0 0-2.191533-7.086359z" p-id="3892"></path><path d="M617.747507 209.165005c2.715334-20.133208 2.606961-36.858702 1.860395-48.328128 15.617686 8.591533 35.726811 23.486736 39.279022 41.789652 2.546754 13.113076-3.612418 27.285795-18.308937 42.174976-8.573471-3.479962-25.840828-13.347883-22.83048-35.6365zM501.349389 209.165005c2.721355-20.133208 2.612982-36.858702 1.860395-48.328128 15.617686 8.591533 35.726811 23.486736 39.285042 41.789652 2.546754 13.113076-3.612418 27.285795-18.308937 42.174976-8.585513-3.479962-25.846849-13.347883-22.8365-35.6365zM387.955597 209.165005c2.727375-20.133208 2.612982-36.858702 1.866416-48.328128 15.611665 8.591533 35.726811 23.486736 39.279022 41.789652 2.552775 13.113076-3.612418 27.285795-18.308937 42.174976-8.585513-3.479962-25.846849-13.347883-22.836501-35.6365z" fill="#FFCC66" p-id="3893"></path><path d="M778.746943 604.315334h-522.295391V481.950706c4.605833 3.233114 8.471119 9.049106 13.329821 16.7857 7.875071 12.529069 17.664722 28.122672 37.659455 28.122672 20.000753 0 29.796425-15.593603 37.665475-28.122672 7.658325-12.19191 12.842145-19.669614 22.372907-19.669614s14.70254 7.471684 22.360865 19.669614c7.86905 12.529069 17.658702 28.122672 37.653434 28.122672s29.784384-15.593603 37.659454-28.122672c7.652305-12.19191 12.836124-19.669614 22.360866-19.669614 9.530762 0 14.708561 7.471684 22.366886 19.669614 7.86905 12.529069 17.664722 28.122672 37.665475 28.122672s29.796425-15.593603 37.677516-28.122672c7.652305-12.19191 12.842145-19.669614 22.378928-19.669614s14.708561 7.471684 22.372907 19.669614c7.875071 12.529069 17.664722 28.122672 37.659454 28.122672 20.012794 0 29.808467-15.593603 37.689558-28.122672 7.664346-12.19191 12.848166-19.669614 22.390969-19.669614s14.720602 7.471684 22.390969 19.669614c6.586642 10.469991 14.53396 23.053246 28.658514 26.912512v78.666416z" fill="#EF6354" p-id="3894"></path><path d="M298.620508 369.508184h437.957479c23.245908 0 42.168956 18.917027 42.168956 42.168956V505.919097c-4.623895-3.227093-8.495202-9.049106-13.365946-16.797742-7.875071-12.529069-17.676764-28.116651-37.683537-28.116651s-29.808467 15.587582-37.683537 28.116651c-7.658325 12.19191-12.848166 19.675635-22.39699 19.675635-9.524741 0-14.70254-7.471684-22.366886-19.669615-7.86905-12.529069-17.664722-28.122672-37.665475-28.122671s-29.796425 15.593603-37.677516 28.122671c-7.652305 12.19191-12.842145 19.669614-22.378928 19.669615-9.530762 0-14.708561-7.471684-22.366886-19.669615-7.86905-12.529069-17.664722-28.122672-37.665475-28.122671-19.994732 0-29.784384 15.593603-37.659455 28.122671-7.652305 12.19191-12.836124 19.669614-22.360865 19.669615s-14.696519-7.471684-22.354845-19.669615c-7.86905-12.529069-17.664722-28.122672-37.659454-28.122671-20.000753 0-29.790405 15.593603-37.665475 28.122671-7.658325 12.19191-12.836124 19.669614-22.372907 19.669615-9.524741 0-14.70254-7.471684-22.360866-19.669615-6.580621-10.476011-14.52794-23.053246-28.62841-26.912511v-50.543745c0.018062-23.245908 18.929069-42.162935 42.187018-42.162935z" fill="#FFFFFF" p-id="3895"></path><path d="M256.451552 622.377422h522.295391v147.482973h-522.295391z" fill="#FFCC66" p-id="3896"></path><path d="M324.936971 848.153528h385.324553v21.072436h-385.324553zM787.777987 787.922484H199.887112c4.352963 15.238382 16.43048 42.168956 47.533396 42.168955h540.357479c31.096896 0 43.174412-26.918532 47.521354-42.168955h-47.521354z" fill="#7BDDFF" p-id="3897"></path><path d="M351.018627 696.13095m-22.071873 0a22.071872 22.071872 0 1 0 44.143745 0 22.071872 22.071872 0 1 0-44.143745 0Z" p-id="3898"></path><path d="M462.070367 696.13095m-22.071872 0a22.071872 22.071872 0 1 0 44.143744 0 22.071872 22.071872 0 1 0-44.143744 0Z" p-id="3899"></path><path d="M573.110066 696.13095m-22.071872 0a22.071872 22.071872 0 1 0 44.143744 0 22.071872 22.071872 0 1 0-44.143744 0Z" p-id="3900"></path><path d="M684.167827 696.13095m-22.071872 0a22.071872 22.071872 0 1 0 44.143744 0 22.071872 22.071872 0 1 0-44.143744 0Z" p-id="3901"></path></svg>