<?xml version="1.0" standalone="no"?><!DOCTYPE svg PUBLIC "-//W3C//DTD SVG 1.1//EN" "http://www.w3.org/Graphics/SVG/1.1/DTD/svg11.dtd"><svg class="icon" width="200px" height="200.00px" viewBox="0 0 1024 1024" version="1.1" xmlns="http://www.w3.org/2000/svg"><path fill="#2bdae4" d="M314.86 298.653c15.62-15.62 40.947-15.62 56.568 0 15.465 15.465 15.62 40.442 0.464 56.097l-0.464 0.472-192 192c-15.62 15.62-40.947 15.62-56.568 0-15.465-15.465-15.62-40.442-0.464-56.097l0.464-0.472 192-192zM708.15 298.653c-15.622-15.62-40.948-15.62-56.57 0-15.464 15.465-15.619 40.442-0.463 56.097l0.464 0.472 192 192c15.62 15.62 40.947 15.62 56.568 0 15.465-15.465 15.62-40.442 0.464-56.097l-0.464-0.472-192-192zM572.092 275.247c21.118 5.687 33.713 27.256 28.39 48.385l-0.167 0.64L496.433 710.03c-5.744 21.332-27.693 33.967-49.025 28.223-21.118-5.687-33.713-27.256-28.39-48.385l0.167-0.64L523.067 303.47c5.744-21.332 27.693-33.967 49.025-28.223z"  /><path fill="#2bdae4" d="M371.448 681.592c15.621 15.621 15.621 40.948 0 56.569-15.464 15.464-40.442 15.62-56.097 0.464l-0.471-0.464-192-192c-15.621-15.621-15.621-40.948 0-56.569 15.465-15.465 40.442-15.62 56.097-0.464l0.471 0.464 192 192zM651.56 681.592c-15.62 15.621-15.62 40.948 0 56.569 15.465 15.464 40.443 15.62 56.098 0.464l0.471-0.464 192-192c15.621-15.621 15.621-40.948 0-56.569-15.465-15.465-40.442-15.62-56.097-0.464l-0.471 0.464-192 192z"  /></svg>