<?xml version="1.0" standalone="no"?><!DOCTYPE svg PUBLIC "-//W3C//DTD SVG 1.1//EN" "http://www.w3.org/Graphics/SVG/1.1/DTD/svg11.dtd"><svg t="1655206498465" class="icon" viewBox="0 0 1024 1024" version="1.1" xmlns="http://www.w3.org/2000/svg" p-id="1583" xmlns:xlink="http://www.w3.org/1999/xlink" width="200" height="200"><defs><style type="text/css"></style></defs><path d="M506.507636 168.804848c-188.509091 0-341.333333 152.824242-341.333333 341.333334s152.824242 341.333333 341.333333 341.333333 341.333333-152.824242 341.333334-341.333333-152.824242-341.333333-341.333334-341.333334z m-403.393939 341.333334c0-222.797576 180.596364-403.393939 403.393939-403.39394s403.393939 180.596364 403.39394 403.39394-180.596364 403.393939-403.39394 403.393939-403.393939-180.596364-403.393939-403.393939z" fill="#45a4f6" p-id="1584"></path><path d="M444.44703 479.107879a31.030303 31.030303 0 0 1 31.030303-31.030303h31.030303a31.030303 31.030303 0 0 1 31.030303 31.030303v186.181818a31.030303 31.030303 0 0 1 0 62.060606h-31.030303a31.030303 31.030303 0 0 1-31.030303-31.030303v-186.181818a31.030303 31.030303 0 0 1-31.030303-31.030303z" fill="#45a4f6" p-id="1585"></path><path d="M506.507636 386.01697a46.545455 46.545455 0 1 0 0-93.090909 46.545455 46.545455 0 0 0 0 93.090909z" fill="#45a4f6" p-id="1586"></path></svg>