<?xml version="1.0" standalone="no"?><!DOCTYPE svg PUBLIC "-//W3C//DTD SVG 1.1//EN" "http://www.w3.org/Graphics/SVG/1.1/DTD/svg11.dtd"><svg t="1655206524477" class="icon" viewBox="0 0 1024 1024" version="1.1" xmlns="http://www.w3.org/2000/svg" p-id="1959" xmlns:xlink="http://www.w3.org/1999/xlink" width="200" height="200"><defs><style type="text/css"></style></defs><path d="M506.507636 168.804848c-188.509091 0-341.333333 152.824242-341.333333 341.333334s152.824242 341.333333 341.333333 341.333333 341.333333-152.824242 341.333334-341.333333-152.824242-341.333333-341.333334-341.333334z m-403.393939 341.333334c0-222.797576 180.596364-403.393939 403.393939-403.39394s403.393939 180.596364 403.39394 403.39394-180.596364 403.393939-403.39394 403.393939-403.393939-180.596364-403.393939-403.393939z" fill="#45a4f6" p-id="1960"></path><path d="M506.507636 758.380606a46.545455 46.545455 0 1 0 0-93.090909 46.545455 46.545455 0 0 0 0 93.090909z" fill="#45a4f6" p-id="1961"></path><path d="M453.073455 303.569455a139.636364 139.636364 0 1 1 84.464484 265.153939v3.475394a31.030303 31.030303 0 1 1-62.060606 0v-31.030303a31.030303 31.030303 0 0 1 31.030303-31.030303 77.575758 77.575758 0 1 0-77.575757-77.575758 31.030303 31.030303 0 1 1-62.060606 0 139.636364 139.636364 0 0 1 86.202182-128.992969z" fill="#45a4f6" p-id="1962"></path></svg>