<?xml version="1.0" standalone="no"?><!DOCTYPE svg PUBLIC "-//W3C//DTD SVG 1.1//EN" "http://www.w3.org/Graphics/SVG/1.1/DTD/svg11.dtd"><svg class="icon" width="200px" height="200.00px" viewBox="0 0 1024 1024" version="1.1" xmlns="http://www.w3.org/2000/svg"><path fill="#2bdae4" d="M511.5 113C732.138 113 911 291.862 911 512.5S732.138 912 511.5 912 112 733.138 112 512.5 290.862 113 511.5 113z m0 80C335.045 193 192 336.045 192 512.5S335.045 832 511.5 832 831 688.955 831 512.5 687.955 193 511.5 193z"  /><path fill="#2bdae4" d="M553.622 528.028c0 22.091-17.909 40-40 40-21.87 0-39.642-17.552-39.995-39.338l-0.005-0.662V289.384c0-22.091 17.908-40 40-40 21.87 0 39.641 17.553 39.994 39.339l0.006 0.661v238.644z"  /><path fill="#2bdae4" d="M512 682m0-55a55 55 0 1 0 0 110 55 55 0 1 0 0-110Z"  /></svg>