<?xml version="1.0" standalone="no"?><!DOCTYPE svg PUBLIC "-//W3C//DTD SVG 1.1//EN" "http://www.w3.org/Graphics/SVG/1.1/DTD/svg11.dtd"><svg t="1655206169747" class="icon" viewBox="0 0 1024 1024" version="1.1" xmlns="http://www.w3.org/2000/svg" p-id="3755" width="200" height="200" xmlns:xlink="http://www.w3.org/1999/xlink"><defs><style type="text/css"></style></defs><path d="M506.507636 386.01697a31.030303 31.030303 0 0 1 31.030303 31.030303v155.151515a31.030303 31.030303 0 1 1-62.060606 0v-155.151515a31.030303 31.030303 0 0 1 31.030303-31.030303z" fill="#f9e600" p-id="3756"></path><path d="M460.024242 119.187394a93.090909 93.090909 0 0 1 127.069091 34.009212l-26.624 15.422061 26.624-15.422061 341.240243 589.575758a93.090909 93.090909 0 0 1-80.585697 139.698424H165.267394a93.090909 93.090909 0 0 1-80.554667-139.729455L425.95297 153.196606l27.306666 15.825455-27.306666-15.825455a93.090909 93.090909 0 0 1 34.071272-34.009212z m46.483394 49.617454a31.030303 31.030303 0 0 0-26.841212 15.484122L138.395152 773.833697l-26.872243-15.515152 26.872243 15.515152a31.030303 31.030303 0 0 0 26.841212 46.576485H847.747879a31.030303 31.030303 0 0 0 26.872242-46.576485l26.841212-15.515152-26.841212 15.515152L533.379879 184.28897a31.030303 31.030303 0 0 0-26.872243-15.515152z" fill="#f9e600" p-id="3757"></path><path d="M506.507636 758.380606a46.545455 46.545455 0 1 0 0-93.090909 46.545455 46.545455 0 0 0 0 93.090909z" fill="#f9e600" p-id="3758"></path></svg>