<?xml version="1.0" standalone="no"?><!DOCTYPE svg PUBLIC "-//W3C//DTD SVG 1.1//EN" "http://www.w3.org/Graphics/SVG/1.1/DTD/svg11.dtd"><svg class="icon" width="200px" height="200.00px" viewBox="0 0 1024 1024" version="1.1" xmlns="http://www.w3.org/2000/svg"><path fill="#2bdae4" d="M488.9721875 168.875H175.3484375c-20.7103125 0-37.5 16.7896875-37.5 37.5v610.3125c0 20.7103125 16.7896875 37.5 37.5 37.5h674.240625c20.7103125 0 37.5-16.7896875 37.5-37.5V338.489375c-0.3365625-20.424375-16.996875-36.879375-37.5-36.879375l-277.348125-0.0009375-48.99-110.4403125A37.5 37.5 0 0 0 488.9721875 168.875z m-24.3890625 75l48.9909375 110.4403125 0.1846875 0.4096875a37.5 37.5 0 0 0 34.0940625 21.885l264.2353125-0.0009375V779.1875H212.8484375V243.875h251.7346875z"  /><path fill="#2bdae4" d="M849.5890625 301.61h-674.240625c-20.7103125 0-37.5 16.7896875-37.5 37.5V816.6875c0 20.7103125 16.7896875 37.5 37.5 37.5h674.240625c20.7103125 0 37.5-16.7896875 37.5-37.5V339.11c0-20.7103125-16.7896875-37.5-37.5-37.5z m-37.5009375 74.9990625v402.5775H212.8484375V376.6090625h599.2396875z"  /></svg>