<?xml version="1.0" standalone="no"?><!DOCTYPE svg PUBLIC "-//W3C//DTD SVG 1.1//EN" "http://www.w3.org/Graphics/SVG/1.1/DTD/svg11.dtd"><svg class="icon" width="200px" height="200.00px" viewBox="0 0 1024 1024" version="1.1" xmlns="http://www.w3.org/2000/svg"><path fill="#000000" d="M688.66015625 301.0625H196.47265625c-19.41591797 0-35.15625 15.74033203-35.15625 35.15625v492.1875c0 19.41591797 15.74033203 35.15625 35.15625 35.15625h492.1875c19.41591797 0 35.15625-15.74033203 35.15625-35.15625V336.21875c0-19.41591797-15.74033203-35.15625-35.15625-35.15625z m-35.15625 70.3125v421.875H231.62890625V371.375h421.875z"  /><path fill="#000000" d="M828.40625 160.4375c19.22167969 0 34.84072266 15.4265625 35.15625 34.57529297V687.78125c0 19.41591797-15.74033203 35.15625-35.15625 35.15625-19.22167969 0-34.84072266-15.4265625-35.15185547-34.57529297L793.25 687.78125V230.75H336.21875c-19.22167969 0-34.84072266-15.4265625-35.15625-34.57529297V195.59375c0-19.22167969 15.4265625-34.84072266 34.57529297-35.15625H828.40625zM555.89257813 547.76884766c19.41503906 0 35.15625 15.73945313 35.15625 35.15625 0 19.22167969-15.42744141 34.84072266-34.57529297 35.15097656l-0.58095704 0.00527344H330.35029297c-19.41679687 0-35.15625-15.74033203-35.15625-35.15625 0-19.22167969 15.4265625-34.84160156 34.57441406-35.15185547l0.58183594-0.00439453H555.89257813z"  /><path fill="#000000" d="M478.27724609 695.69580078c0 19.41679687-15.74033203 35.15625-35.15625 35.15625-19.22167969 0-34.84072266-15.4265625-35.15185546-34.57441406l-0.00439454-0.58183594V470.15351563c0-19.41591797 15.74033203-35.15625 35.15625-35.15625 19.22167969 0 34.84072266 15.42744141 35.15185547 34.57529296l0.00439453 0.58095704v225.54228515z"  /></svg>