<?xml version="1.0" standalone="no"?><!DOCTYPE svg PUBLIC "-//W3C//DTD SVG 1.1//EN" "http://www.w3.org/Graphics/SVG/1.1/DTD/svg11.dtd"><svg class="icon" width="200px" height="200.00px" viewBox="0 0 1024 1024" version="1.1" xmlns="http://www.w3.org/2000/svg"><path fill="#000000" d="M512 137.9375c-120.121875 0-217.5 97.378125-217.5 217.5s97.378125 217.5 217.5 217.5 217.5-97.378125 217.5-217.5-97.378125-217.5-217.5-217.5z m0 75c78.7003125 0 142.5 63.7996875 142.5 142.5s-63.7996875 142.5-142.5 142.5-142.5-63.7996875-142.5-142.5 63.7996875-142.5 142.5-142.5z"  /><path fill="#000000" d="M511.53125 497.9375C704.4125 497.9375 860.75 654.5103125 860.75 847.625c0 20.7103125-16.7896875 37.5-37.5 37.5-20.503125 0-37.1634375-16.455-37.4953125-36.8803125L785.75 847.625c0-151.7184375-122.784375-274.6875-274.21875-274.6875-149.9203125 0-271.760625 120.5221875-274.18125 270.144375L237.3125 847.625c0 20.7103125-16.7896875 37.5-37.5 37.5s-37.5-16.7896875-37.5-37.5c0-193.1146875 156.3375-349.6875 349.21875-349.6875z"  /></svg>