<?xml version="1.0" standalone="no"?><!DOCTYPE svg PUBLIC "-//W3C//DTD SVG 1.1//EN" "http://www.w3.org/Graphics/SVG/1.1/DTD/svg11.dtd"><svg class="icon" width="200px" height="200.00px" viewBox="0 0 1024 1024" version="1.1" xmlns="http://www.w3.org/2000/svg"><path fill="#000000" d="M876.104375 372.153125c14.6446875-14.64375 14.6446875-38.3878125 0-53.0325-14.4975-14.4975-37.914375-14.6428125-52.5909375-0.435l-0.4415625 0.435-338.0859375 338.0859375c-14.64375 14.64375-14.64375 38.3878125 0 53.0325 14.4984375 14.4984375 37.914375 14.64375 52.5909375 0.435l0.4425-0.435 338.085-338.085z"  /><path fill="#000000" d="M200.825 320.013125c-14.64375-14.6446875-38.3878125-14.6446875-53.0325 0-14.4975 14.4984375-14.6428125 37.914375-0.435 52.5909375l0.435 0.4415625 337.6275 337.6275c14.6446875 14.6446875 38.38875 14.6446875 53.0334375 0 14.4975-14.4984375 14.64375-37.914375 0.435-52.5909375l-0.435-0.4415625L200.825 320.013125z"  /></svg>