<?xml version="1.0" standalone="no"?><!DOCTYPE svg PUBLIC "-//W3C//DTD SVG 1.1//EN" "http://www.w3.org/Graphics/SVG/1.1/DTD/svg11.dtd"><svg class="icon" width="200px" height="200.00px" viewBox="0 0 1024 1024" version="1.1" xmlns="http://www.w3.org/2000/svg"><path fill="#000000" d="M511.5 113C732.138 113 911 291.862 911 512.5S732.138 912 511.5 912 112 733.138 112 512.5 290.862 113 511.5 113z m0 80C335.045 193 192 336.045 192 512.5S335.045 832 511.5 832 831 688.955 831 512.5 687.955 193 511.5 193z"  /><path fill="#000000" d="M499.285 655.675c7.02 0 13.553 1.365 19.597 4.095a53.992 53.992 0 0 1 16.088 11.115 53.992 53.992 0 0 1 11.115 16.088c2.73 6.045 4.095 12.577 4.095 19.597 0 7.02-1.365 13.553-4.095 19.598a53.992 53.992 0 0 1-11.115 16.087 53.992 53.992 0 0 1-16.088 11.115c-6.044 2.73-12.577 4.095-19.597 4.095-7.02 0-13.552-1.365-19.597-4.095a53.992 53.992 0 0 1-16.088-11.115 53.992 53.992 0 0 1-11.115-16.088c-2.73-6.045-4.095-12.577-4.095-19.597 0-7.02 1.365-13.553 4.095-19.598a53.992 53.992 0 0 1 11.115-16.087 53.992 53.992 0 0 1 16.088-11.115c6.045-2.73 12.577-4.095 19.597-4.095z m15.795-389.61c39 0 69.615 10.627 91.845 31.882 22.23 21.255 33.345 51.968 33.345 92.138 0 18.72-4.485 36.075-13.455 52.065-8.97 15.99-22.815 33.345-41.535 52.065-11.31 10.92-20.28 20.183-26.91 27.787-6.63 7.606-11.602 14.43-14.917 20.476-3.315 6.044-5.46 11.992-6.435 17.842-0.975 5.85-1.463 12.48-1.463 19.89 0 24.96-10.53 37.44-31.59 37.44-8.19 0-14.625-0.585-19.305-1.755s-8.287-3.218-10.822-6.143c-2.535-2.925-4.193-6.825-4.973-11.7-0.78-4.875-1.17-10.822-1.17-17.842 0-39.78 20.28-79.56 60.84-119.34 9.36-8.97 16.965-16.478 22.815-22.523 5.85-6.045 10.433-11.7 13.748-16.965 3.315-5.265 5.46-10.53 6.435-15.795 0.975-5.265 1.462-11.602 1.462-19.012 0-17.55-5.265-31.005-15.795-40.365-10.53-9.36-25.155-14.04-43.875-14.04s-33.735 5.362-45.045 16.087c-11.31 10.725-17.355 23.693-18.135 38.903-1.17 23.01-12.48 34.515-33.93 34.515-22.62 0-33.93-11.115-33.93-33.345 0-31.98 12.48-60.45 37.44-85.41 24.57-24.57 56.355-36.855 95.355-36.855z"  /></svg>