<?xml version="1.0" standalone="no"?><!DOCTYPE svg PUBLIC "-//W3C//DTD SVG 1.1//EN" "http://www.w3.org/Graphics/SVG/1.1/DTD/svg11.dtd"><svg class="icon" width="200px" height="200.00px" viewBox="0 0 1024 1024" version="1.1" xmlns="http://www.w3.org/2000/svg"><path d="M912 112v800H112V112h800m0-48H112a48 48 0 0 0-48 48v800a48 48 0 0 0 48 48h800a48 48 0 0 0 48-48V112a48 48 0 0 0-48-48zM808 216v592H297.94L216 726.06V216h592m24-24H192v544l96 96h544V192z"  /><path d="M768 304a48 48 0 1 1-48-48 48 48 0 0 1 48 48zM160 768v96h96z" fill="#1890FF" /></svg>