<?xml version="1.0" standalone="no"?><!DOCTYPE svg PUBLIC "-//W3C//DTD SVG 1.1//EN" "http://www.w3.org/Graphics/SVG/1.1/DTD/svg11.dtd"><svg class="icon" width="200px" height="200.00px" viewBox="0 0 1024 1024" version="1.1" xmlns="http://www.w3.org/2000/svg"><path fill="#2bdae4" d="M976 240v544H48V240h928m0-48H48a48 48 0 0 0-48 48v544a48 48 0 0 0 48 48h928a48 48 0 0 0 48-48V240a48 48 0 0 0-48-48zM846.11 336l32 64-32 64H689l-31.2-64 31.2-64h157.11m9.89-16H679l-39 80 39 80h177l40-80-40-80zM512 512c-1.88-105.54-88.63-192-188.09-192h-3.9c-106 2.41-192 86-192 192S214 704 320 704s193.86-86 192-192z m-43.16 79.59a114.59 114.59 0 0 1-87.3-11.6 115.83 115.83 0 0 1-23.24-17.62 63.9 63.9 0 0 0 11.7-11.63 131.8 131.8 0 0 0 117.41-21.89 160.1 160.1 0 0 1-18.6 62.76zM240.16 659.9A114.57 114.57 0 0 1 252 573.51a115.83 115.83 0 0 1 17.62-23.24A63.9 63.9 0 0 0 281.26 562a131.69 131.69 0 0 0 21.67 117.12 166.48 166.48 0 0 1-62.77-19.22z m-67.67-227.84a114.54 114.54 0 0 1 86 11.93 115.83 115.83 0 0 1 23.24 17.62A63.9 63.9 0 0 0 270 473.26a131.65 131.65 0 0 0-117.1 21.66 164.12 164.12 0 0 1 19.59-62.86z m89.14 55.49a62.43 62.43 0 0 0-4.32 15.92 131.67 131.67 0 0 0-90.64 77.4 167.15 167.15 0 0 1-14.6-64.14 115.45 115.45 0 0 1 109.56-29.18z m20 52.06a47.13 47.13 0 0 1-7.12-14.67 46.36 46.36 0 0 1-1.57-8.21c-0.15-1.55-0.23-3.13-0.23-4.72a47.08 47.08 0 0 1 1.41-11.46 46.5 46.5 0 0 1 2.74-7.91 47.46 47.46 0 0 1 30.18-26.1 46.36 46.36 0 0 1 8.21-1.57c1.55-0.15 3.13-0.23 4.72-0.23a47.08 47.08 0 0 1 11.46 1.41 46.5 46.5 0 0 1 7.91 2.74 47.46 47.46 0 0 1 26.1 30.18 46.36 46.36 0 0 1 1.57 8.21c0.15 1.55 0.23 3.13 0.23 4.72a47.1 47.1 0 0 1-1.41 11.47 46.09 46.09 0 0 1-2.74 7.9 47.42 47.42 0 0 1-9.09 13.48 47.34 47.34 0 0 1-21 12.62 46.36 46.36 0 0 1-8.21 1.57c-1.55 0.15-3.13 0.23-4.72 0.23a47.08 47.08 0 0 1-11.46-1.41 46.5 46.5 0 0 1-7.91-2.74 47.87 47.87 0 0 1-19-15.51z m33.78-195.38a115.48 115.48 0 0 1 29 109.4 62.21 62.21 0 0 0-15.93-4.32 131.7 131.7 0 0 0-76.13-90.12 176.85 176.85 0 0 1 63.08-14.96z m158.35 102.82a171.42 171.42 0 0 1 14 60.34 115.47 115.47 0 0 1-109.43 29.06 62.43 62.43 0 0 0 4.32-15.92 131.74 131.74 0 0 0 90-75.86c0.4 0.79 0.76 1.58 1.11 2.38z m-11.14-21.51a115.76 115.76 0 0 1-79.85 78.52 62.06 62.06 0 0 0-4.17-15.94 132 132 0 0 0 23.27-29.63 130.37 130.37 0 0 0 16.64-81.8 173.74 173.74 0 0 1 18.92 16.6 175.61 175.61 0 0 1 25.19 32.25z m-62.68-61.06a114.61 114.61 0 0 1-11.93 86 115.83 115.83 0 0 1-17.62 23.24A63.9 63.9 0 0 0 358.74 462a131.68 131.68 0 0 0-21.88-117.39 152.62 152.62 0 0 1 48.43 12.55 162.9 162.9 0 0 1 14.65 7.32z m-166.82 4.78a115.75 115.75 0 0 1 78.94 80 62.06 62.06 0 0 0-15.94 4.17 132 132 0 0 0-29.63-23.27 130.38 130.38 0 0 0-82.09-16.6 169.3 169.3 0 0 1 16.74-19.31 171.56 171.56 0 0 1 31.98-24.99z m-56.21 230.88a115.72 115.72 0 0 1 80.32-80.2 62.06 62.06 0 0 0 4.17 15.94 132 132 0 0 0-23.27 29.63 130.38 130.38 0 0 0-16.51 82.71 169.83 169.83 0 0 1-44.71-48.08z m147.82 79.79a115.45 115.45 0 0 1-29.18-109.56 62.21 62.21 0 0 0 15.93 4.32A131.64 131.64 0 0 0 389 665.36c-0.77 0.34-1.53 0.69-2.3 1a168.53 168.53 0 0 1-61.97 13.57zM441 629.27a169.26 169.26 0 0 1-32.6 25.9 115.74 115.74 0 0 1-80.46-80.4 62.06 62.06 0 0 0 15.94-4.17 132 132 0 0 0 29.63 23.27 130 130 0 0 0 83.58 16.4 170.47 170.47 0 0 1-16.09 19zM720 544v160h96V544z m80 16v64h-64v-64z m-64 128v-48h64v48z"  /><path fill="#2bdae4" d="M742 390h-24v-32h24z m76-32h-24v32h24z m-38 52h-24v32h24z"  /></svg>