<?xml version="1.0" standalone="no"?><!DOCTYPE svg PUBLIC "-//W3C//DTD SVG 1.1//EN" "http://www.w3.org/Graphics/SVG/1.1/DTD/svg11.dtd"><svg class="icon" width="200px" height="200.00px" viewBox="0 0 1024 1024" version="1.1" xmlns="http://www.w3.org/2000/svg"><path fill="#2bdae4" d="M255 64C149 64 63 150 63 256a192.06 192.06 0 0 0 129 181.42V704h16v256h96V704h16V436.71A192.06 192.06 0 0 0 447 256c0-106-86-192-192-192z m25 872h-48V704h48z m16-256h-80V444a194.06 194.06 0 0 0 80-0.42z m60.82-322.18A144 144 0 0 1 320 384.56a141.53 141.53 0 0 1-24 9.55 145.63 145.63 0 0 1-80 0.57 140.53 140.53 0 0 1-24-9.13 144.06 144.06 0 1 1 164.82-27.73z m578.63-213.13C909.66 134.07 879.81 128 848 128a232.81 232.81 0 0 0-80 13.79v-28.42C768 85.6 746 64 720.16 64a47 47 0 0 0-9.92 1.07C607.92 87.17 512 164.27 512 256c0 47.2 25.4 90.53 64 124.49V704h16v256h96V704h16V445.51q3.12 0.75 6.24 1.42a47 47 0 0 0 9.92 1.07C746 448 768 426.39 768 398.63v-28.42A232.81 232.81 0 0 0 848 384c31.81 0 61.66-6.07 87.45-16.69A190.87 190.87 0 0 0 960 355.12V156.88a190.87 190.87 0 0 0-24.55-12.19zM664 936h-48V704h48z m16-256h-80V399.24a308.72 308.72 0 0 0 80 39.51z m40-281.37a2.21 2.21 0 0 1-0.3 1.24q-7.87-1.72-15.7-4c-8.11-2.32-16.13-5-24-8.14A262.58 262.58 0 0 1 636.77 366a222.18 222.18 0 0 1-31.69-23.9l-0.08-0.1c-14.71-13.42-26.06-27.76-33.75-42.63C563.77 285 560 270.39 560 256s3.77-29 11.22-43.37c7.71-14.91 19.1-29.28 33.86-42.73 30-27.36 71.77-48.39 114.63-57.77a2.32 2.32 0 0 1 0.29 1.24z m215.45-57.57a181.47 181.47 0 0 1-25.57 9.94 217 217 0 0 1-123.76 0 185.52 185.52 0 0 1-18.12-6.58V167.58a185.52 185.52 0 0 1 18.12-6.58 217 217 0 0 1 123.76 0 181.47 181.47 0 0 1 25.57 9.93z"  /></svg>