<?xml version="1.0" standalone="no"?><!DOCTYPE svg PUBLIC "-//W3C//DTD SVG 1.1//EN" "http://www.w3.org/Graphics/SVG/1.1/DTD/svg11.dtd"><svg class="icon" width="200px" height="200.00px" viewBox="0 0 1024 1024" version="1.1" xmlns="http://www.w3.org/2000/svg"><path fill="#2bdae4" d="M512 48a464.13 464.13 0 0 1 180.59 891.56A464.14 464.14 0 0 1 331.4 84.44 461.14 461.14 0 0 1 512 48m0-48C229.23 0 0 229.23 0 512s229.23 512 512 512 512-229.23 512-512S794.77 0 512 0z m0 276a235.28 235.28 0 1 1-91.85 18.54A234.48 234.48 0 0 1 512 276m0-24c-143.59 0-260 116.41-260 260s116.41 260 260 260 260-116.41 260-260-116.41-260-260-260z m0 148a112 112 0 1 1-79.2 32.8A111.29 111.29 0 0 1 512 400m0-48a160 160 0 1 0 160 160 160 160 0 0 0-160-160z"  /></svg>