<?xml version="1.0" standalone="no"?><!DOCTYPE svg PUBLIC "-//W3C//DTD SVG 1.1//EN" "http://www.w3.org/Graphics/SVG/1.1/DTD/svg11.dtd"><svg class="icon" width="200px" height="200.00px" viewBox="0 0 1024 1024" version="1.1" xmlns="http://www.w3.org/2000/svg"><path fill="#2bdae4" d="M768 384h-64V256h64zM320 640h-64v128h64z"  /><path fill="#2bdae4" d="M912 112v800H112V112h800m0-48H112a48 48 0 0 0-48 48v800a48 48 0 0 0 48 48h800a48 48 0 0 0 48-48V112a48 48 0 0 0-48-48zM320 384h-64V256h64z m96-128h-64v128h64z m256 0h-64v128h64z m0 384h-64v128h64z m-256 0h-64v128h64z m352 0h-64v128h64zM192 160a32 32 0 1 0 32 32 32 32 0 0 0-32-32z m0 640a32 32 0 1 0 32 32 32 32 0 0 0-32-32z m640-640a32 32 0 1 0 32 32 32 32 0 0 0-32-32z m0 640a32 32 0 1 0 32 32 32 32 0 0 0-32-32z"  /></svg>