<?xml version="1.0" standalone="no"?><!DOCTYPE svg PUBLIC "-//W3C//DTD SVG 1.1//EN" "http://www.w3.org/Graphics/SVG/1.1/DTD/svg11.dtd"><svg class="icon" width="200px" height="200.00px" viewBox="0 0 1024 1024" version="1.1" xmlns="http://www.w3.org/2000/svg"><path fill="#2bdae4" d="M976 304v416H48V304h928m0-48H48a48 48 0 0 0-48 48v416a48 48 0 0 0 48 48h928a48 48 0 0 0 48-48V304a48 48 0 0 0-48-48zM144 400v32h-32v-32h32m16-16H96v64h64v-64z m80 16v32h-32v-32h32m16-16h-64v64h64v-64z m80 16v32h-32v-32h32m16-16h-64v64h64v-64z m80 16v32h-32v-32h32m16-16h-64v64h64v-64z m80 16v32h-32v-32h32m16-16h-64v64h64v-64z m80 16v32h-32v-32h32m16-16h-64v64h64v-64z m80 16v32h-32v-32h32m16-16h-64v64h64v-64z m80 16v32h-32v-32h32m16-16h-64v64h64v-64zM144 496v32h-32v-32h32m16-16H96v64h64v-64z m80 16v32h-32v-32h32m16-16h-64v64h64v-64z m80 16v32h-32v-32h32m16-16h-64v64h64v-64z m80 16v32h-32v-32h32m16-16h-64v64h64v-64z m80 16v32h-32v-32h32m16-16h-64v64h64v-64z m80 16v32h-32v-32h32m16-16h-64v64h64v-64z m80 16v32h-32v-32h32m16-16h-64v64h64v-64zM144 591v32h-32v-32h32m16-16H96v64h64v-64z m80 16v32h-32v-32h32m16-16h-64v64h64v-64z m560 16v32h-32v-32h32m16-16h-64v64h64v-64z m80 17v32h-32v-32h32m16-16h-64v64h64v-64z m-208 15v32H304v-32h416m16-16H288v64h448v-64z m176-175v128H784v-32h96v-96h32m16-16h-64v96h-96v64h160V384z"  /></svg>