<?xml version="1.0" standalone="no"?><!DOCTYPE svg PUBLIC "-//W3C//DTD SVG 1.1//EN" "http://www.w3.org/Graphics/SVG/1.1/DTD/svg11.dtd"><svg t="1653617349658" class="icon" viewBox="0 0 1024 1024" version="1.1" xmlns="http://www.w3.org/2000/svg" p-id="2127" xmlns:xlink="http://www.w3.org/1999/xlink" width="200" height="200"><defs><style type="text/css"></style></defs><path d="M976 512h-80V152a24 24 0 0 0-48 0v360H176V152a24 24 0 0 0-48 0v360H48a48 48 0 0 0-48 48v192a48 48 0 0 0 48 48h80v48a48 48 0 0 0 48 48h672a48 48 0 0 0 48-48v-48h80a48 48 0 0 0 48-48V560a48 48 0 0 0-48-48zM848 848H176v-48h672z m128-96H48V560h928z" fill="#2bdae4" p-id="2128"></path><path d="M192 656a32 32 0 1 1-32-32 32 32 0 0 1 32 32z m56-32h-24v64h24z m56 0h-24v64h24z m50 0h-24v64h24z" fill="#2bdae4" p-id="2129"></path></svg>