<?xml version="1.0" standalone="no"?><!DOCTYPE svg PUBLIC "-//W3C//DTD SVG 1.1//EN" "http://www.w3.org/Graphics/SVG/1.1/DTD/svg11.dtd"><svg class="icon" width="200px" height="200.00px" viewBox="0 0 1024 1024" version="1.1" xmlns="http://www.w3.org/2000/svg"><path fill="#2bdae4" d="M744 552v318H280V552h464m24-24H256v366h512V528z m3-448h-48v128h48z m-94 0h-48v128h48z m-94 0h-48v128h48z m-94 0h-48v128h48z m-94 0h-48v128h48z m453-32v192h-48v288h48v448H176V448h48V304h-48V179.88L307.88 48H848m48-48H288L128 160v192h48v48h-48v624h768V480h-48V288h48V0zM704 768H320v24h384v-24z"  /><path fill="#2bdae4" d="M253 208h48v128h-48z"  /></svg>