<?xml version="1.0" standalone="no"?><!DOCTYPE svg PUBLIC "-//W3C//DTD SVG 1.1//EN" "http://www.w3.org/Graphics/SVG/1.1/DTD/svg11.dtd"><svg class="icon" width="200px" height="200.00px" viewBox="0 0 1024 1024" version="1.1" xmlns="http://www.w3.org/2000/svg"><path fill="#2bdae4" d="M1024 416V288a48 48 0 0 0-48-48H48a48 48 0 0 0-48 48v128h64v64H0v256a48 48 0 0 0 48 48h928a48 48 0 0 0 48-48V480h-64v-64z m-48 320h-72v-72h-16v72h-48v-72h-16v72h-48v-72h-16v72h-48v-72h-16v72h-48v-72h-16v72H520v-72h-16v72h-48v-72h-16v72h-48v-72h-16v72h-48v-72h-16v72h-48v-72h-16v72h-48v-72h-16v72h-48v-72h-16v72H48V600h928v136z m-16-208h16v48H48v-48h64V368H48v-80h928v80h-64v160z"  /><path fill="#2bdae4" d="M564 600h24v136h-24z"  /></svg>