<?xml version="1.0" standalone="no"?><!DOCTYPE svg PUBLIC "-//W3C//DTD SVG 1.1//EN" "http://www.w3.org/Graphics/SVG/1.1/DTD/svg11.dtd"><svg class="icon" width="200px" height="200.00px" viewBox="0 0 1024 1024" version="1.1" xmlns="http://www.w3.org/2000/svg"><path d="M416 112v800H256a144 144 0 0 1-144-144V256a144 144 0 0 1 144-144h160m0-48H256C150 64 64 150 64 256v512c0 106 86 192 192 192h160a48 48 0 0 0 48-48V112a48 48 0 0 0-48-48z m352 48a144 144 0 0 1 144 144v512a144 144 0 0 1-144 144H608V112h160m0-48H608a48 48 0 0 0-48 48v800a48 48 0 0 0 48 48h160c106 0 192-86 192-192V256c0-106-86-192-192-192zM264 216a72 72 0 1 1-72 72 72.08 72.08 0 0 1 72-72m0-24a96 96 0 1 0 96 96 96 96 0 0 0-96-96z"  /><path d="M760 736m-96 0a96 96 0 1 0 192 0 96 96 0 1 0-192 0Z" fill="#1890FF" /></svg>