<?xml version="1.0" standalone="no"?><!DOCTYPE svg PUBLIC "-//W3C//DTD SVG 1.1//EN" "http://www.w3.org/Graphics/SVG/1.1/DTD/svg11.dtd"><svg class="icon" width="200px" height="200.00px" viewBox="0 0 1024 1024" version="1.1" xmlns="http://www.w3.org/2000/svg"><path fill="#2bdae4" d="M945.94 241.94L782.06 78.06A48 48 0 0 0 748.12 64H112a48 48 0 0 0-48 48v800a48 48 0 0 0 48 48h800a48 48 0 0 0 48-48V275.88a48 48 0 0 0-14.06-33.94zM216 112h104v248H216z m128 0h336v248H344z m464 800H216V536h592z m104 0h-80V512H192v400h-80V112h80v272h512V112h44.12L912 275.88z"  /><path fill="#2bdae4" d="M576 152h64v168h-64z"  /></svg>