<?xml version="1.0" standalone="no"?><!DOCTYPE svg PUBLIC "-//W3C//DTD SVG 1.1//EN" "http://www.w3.org/Graphics/SVG/1.1/DTD/svg11.dtd"><svg class="icon" width="200px" height="200.00px" viewBox="0 0 1024 1024" version="1.1" xmlns="http://www.w3.org/2000/svg"><path d="M859.42 828.66c-21-50.82-61.9-106.19-111.33-151.58A351.06 351.06 0 0 0 864 416c0-194.4-157.6-352-352-352S160 221.6 160 416a351.06 351.06 0 0 0 115.91 261.08c-49.43 45.39-90.28 100.76-111.33 151.58-25.35 61.2-12.39 92.33 2.95 107.66 18.36 18.37 40.57 25.92 67.87 23.11 21.58-2.23 45.06-10.7 72.24-20.52 50.65-18.29 113.7-41.06 204.36-41.06s153.71 22.77 204.36 41.06c27.18 9.82 50.65 18.29 72.24 20.52a105.62 105.62 0 0 0 10.81 0.57c22.44 0 41.18-7.8 57.06-23.68 15.34-15.32 28.3-46.46 2.95-107.66zM231.87 534.32A304.21 304.21 0 1 1 727 631q-7.85 7.85-16.18 15.06a302.42 302.42 0 0 1-80.46 50.11q-11.6 4.9-23.5 8.81-7.68 2.53-15.49 4.64a307.19 307.19 0 0 1-158.66 0q-7.8-2.12-15.49-4.64-11.9-3.9-23.5-8.81a302.42 302.42 0 0 1-80.5-50.17q-8.32-7.19-16.22-15a303.12 303.12 0 0 1-65.13-96.68z m348.6 227a80 80 0 0 1-136.94 0 355.29 355.29 0 0 0 136.94 0z m242.06 141c-16.15 16.15-35.19 11.13-89.87-8.62-51.31-18.53-121.6-43.91-220.66-43.91s-169.35 25.38-220.66 43.91c-54.68 19.75-73.72 24.77-89.87 8.62-4.4-4.39-6-22.76 7.46-55.35 18-43.5 56.14-96.1 105.41-139.74a349.88 349.88 0 0 0 108.94 49.43 96 96 0 0 0 177.44 0 349.88 349.88 0 0 0 108.94-49.43c49.27 43.64 87.39 96.24 105.41 139.74 13.5 32.65 11.86 51.03 7.46 55.41zM512 256a160 160 0 1 1-113.14 46.86A159 159 0 0 1 512 256z m0-24a184 184 0 1 0 184 184 184 184 0 0 0-184-184z m32-60a32 32 0 1 1-32-32 32 32 0 0 1 32 32z"  /><path d="M568 392a32 32 0 0 1-20.52-56.55 87.94 87.94 0 1 0 45.07 45.07A31.92 31.92 0 0 1 568 392z" fill="#1890FF" /></svg>