<?xml version="1.0" standalone="no"?><!DOCTYPE svg PUBLIC "-//W3C//DTD SVG 1.1//EN" "http://www.w3.org/Graphics/SVG/1.1/DTD/svg11.dtd"><svg class="icon" width="200px" height="200.00px" viewBox="0 0 1024 1024" version="1.1" xmlns="http://www.w3.org/2000/svg"><path fill="#2bdae4" d="M616 64H408c-119.3 0-216 96.71-216 216v360c0 176.73 143.27 320 320 320s320-143.27 320-320V280c0-119.29-96.71-216-216-216z m168 576a272 272 0 1 1-544 0V280a168 168 0 0 1 168-168h92v113.3a56 56 0 0 0-44 54.7v80a56 56 0 0 0 112 0v-80a56 56 0 0 0-44-54.7V112h92a168 168 0 0 1 168 168zM512 238a42 42 0 0 1 42 42v80a42 42 0 0 1-84 0v-80a42 42 0 0 1 42-42z"  /></svg>