<?xml version="1.0" standalone="no"?><!DOCTYPE svg PUBLIC "-//W3C//DTD SVG 1.1//EN" "http://www.w3.org/Graphics/SVG/1.1/DTD/svg11.dtd"><svg t="1653618026434" class="icon" viewBox="0 0 1024 1024" version="1.1" xmlns="http://www.w3.org/2000/svg" p-id="3661" xmlns:xlink="http://www.w3.org/1999/xlink" width="200" height="200"><defs><style type="text/css"></style></defs><path d="M640 672.036571V256a31.963429 31.963429 0 0 0-32.036571-32.036571H32.109714A31.963429 31.963429 0 0 0 0 256v416.036571c0 17.627429 14.336 31.963429 32.036571 31.963429h256v44.470857c0 2.194286-1.828571 4.022857-4.022857 4.022857H175.981714a16.091429 16.091429 0 0 0-16.018285 16.018286v31.963429h320.073142v-31.963429a16.091429 16.091429 0 0 0-16.091428-16.018286H356.059429a4.022857 4.022857 0 0 1-3.949715-4.022857v-44.470857h256a31.963429 31.963429 0 0 0 31.963429-32.036571zM64 635.904V291.986286c0-2.194286 1.828571-3.949714 4.022857-3.949715h503.954286c2.194286 0 4.022857 1.755429 4.022857 3.949715v343.990857c0 2.194286-1.828571 4.022857-4.022857 4.022857H68.022857a4.022857 4.022857 0 0 1-4.022857-4.022857z m896-348.013714v443.977143c0 2.194286-1.828571 4.096-4.022857 4.096h-183.954286a4.022857 4.022857 0 0 1-4.022857-4.022858V291.986286c0-2.194286 1.828571-3.949714 4.022857-3.949715h187.977143z m-224.036571-63.926857a31.963429 31.963429 0 0 0-31.963429 31.963428v512c0 17.700571 14.336 32.036571 32.036571 32.036572h256A31.963429 31.963429 0 0 0 1024 768v-512a31.963429 31.963429 0 0 0-32.036571-32.036571h-256z" fill="#2bdae4" p-id="3662"></path><path d="M919.990857 384.512h-111.981714a8.045714 8.045714 0 0 1-8.045714-8.045714v-47.981715c0-4.388571 3.657143-8.045714 8.045714-8.045714h111.981714c4.388571 0 8.045714 3.657143 8.045714 8.045714v47.981715c0 4.388571-3.657143 8.045714-8.045714 8.045714z m0 95.963429h-111.981714a8.045714 8.045714 0 0 1-8.045714-7.972572v-47.981714c0-4.388571 3.657143-8.045714 8.045714-8.045714h111.981714c4.388571 0 8.045714 3.657143 8.045714 8.045714v47.981714c0 4.388571-3.657143 8.045714-8.045714 8.045714z m-55.954286 224.036571a31.963429 31.963429 0 1 1-0.073142-63.926857 31.963429 31.963429 0 0 1 0 63.926857z" fill="#2bdae4" p-id="3663"></path></svg>