<?xml version="1.0" standalone="no"?><!DOCTYPE svg PUBLIC "-//W3C//DTD SVG 1.1//EN" "http://www.w3.org/Graphics/SVG/1.1/DTD/svg11.dtd"><svg class="icon" width="200px" height="200.00px" viewBox="0 0 1024 1024" version="1.1" xmlns="http://www.w3.org/2000/svg"><path d="M976 352H746.16a192.09 192.09 0 0 0-212.32 0H48a48 48 0 0 0-48 48v224a48 48 0 0 0 48 48h16a32 32 0 0 0 32 32h64a32 32 0 0 0 32-32h341.84a192.09 192.09 0 0 0 212.32 0H832a32 32 0 0 0 32 32h64a32 32 0 0 0 32-32h16a48 48 0 0 0 48-48V400a48 48 0 0 0-48-48zM484 624H48V400h436a192 192 0 0 0 0 224z m257.78-10.18A144 144 0 1 1 784 512a142.35 142.35 0 0 1-42.18 101.82zM976 624H796a192 192 0 0 0 0-224h180zM640 416a96 96 0 1 0 96 96 96 96 0 0 0-96-96z m0 176a80 80 0 1 1 80-80 80.09 80.09 0 0 1-80 80z"  /><path d="M884 448h24v128h-24z" fill="#1890FF" /></svg>