<?xml version="1.0" standalone="no"?><!DOCTYPE svg PUBLIC "-//W3C//DTD SVG 1.1//EN" "http://www.w3.org/Graphics/SVG/1.1/DTD/svg11.dtd"><svg class="icon" width="200px" height="200.00px" viewBox="0 0 1024 1024" version="1.1" xmlns="http://www.w3.org/2000/svg"><path fill="#2bdae4" d="M848 0H176a48.14 48.14 0 0 0-48 48v896a48.14 48.14 0 0 0 48 48h80a32 32 0 0 0 32 32h64a32 32 0 0 0 32-32h256a32 32 0 0 0 32 32h64a32 32 0 0 0 32-32h80a48.14 48.14 0 0 0 48-48V48a48.14 48.14 0 0 0-48-48z m0 943.91l-0.09 0.09H176.09l-0.09-0.09V48.09l0.09-0.09h671.82l0.09 0.09zM512 432c-130.34 0-236 105.66-236 236s105.66 236 236 236 236-105.66 236-236-105.66-236-236-236z m216 236a215.26 215.26 0 1 1-17-84.07A214.63 214.63 0 0 1 728 668zM512 480c-103.83 0-188 84.17-188 188s84.17 188 188 188 188-84.17 188-188-84.17-188-188-188z m118.79 306.79A168 168 0 1 1 680 668a166.9 166.9 0 0 1-49.21 118.79zM512 392a152 152 0 1 0-152-152 152 152 0 0 0 152 152z m-96.17-248.17A136 136 0 1 1 376 240a135.11 135.11 0 0 1 39.83-96.17zM512 344a104 104 0 1 0-104-104 104 104 0 0 0 104 104z m0-192a88 88 0 1 1-88 88 88.1 88.1 0 0 1 88-88z"  /><path fill="#2bdae4" d="M512 628a40 40 0 1 1-40 40 40 40 0 0 1 40-40m0-48a88 88 0 1 0 88 88 88 88 0 0 0-88-88z m1-357a18 18 0 1 1-18 18 18 18 0 0 1 18-18m0-24a42 42 0 1 0 42 42 42 42 0 0 0-42-42z"  /></svg>