<?xml version="1.0" standalone="no"?><!DOCTYPE svg PUBLIC "-//W3C//DTD SVG 1.1//EN" "http://www.w3.org/Graphics/SVG/1.1/DTD/svg11.dtd"><svg class="icon" width="200px" height="200.00px" viewBox="0 0 1024 1024" version="1.1" xmlns="http://www.w3.org/2000/svg"><path fill="#2bdae4" d="M784 48v928H240V48h544m0-48H240a48 48 0 0 0-48 48v928a48 48 0 0 0 48 48h544a48 48 0 0 0 48-48V48a48 48 0 0 0-48-48zM680 152v83H343v-83h337m24-24H319v131h385V128z m-23 216v83H344v-83h337m24-24H320v131h385V320zM432 528v32h-96v-32h96m16-16H320v64h128v-64z m64 192a16 16 0 1 0 16 16 16 16 0 0 0-16-16z"  /><path fill="#2bdae4" d="M512 848m-48 0a48 48 0 1 0 96 0 48 48 0 1 0-96 0Z"  /></svg>